HIERARCHY
ROOT Hips
{
	OFFSET 0.000000 0.000000 0.000000 
	CHANNELS 6 Xposition Yposition Zposition Zrotation Xrotation Yrotation
	JOINT Spine
	{
		OFFSET -0.000000 8.285670 0.000000 
		CHANNELS 3 Zrotation Xrotation Yrotation
		JOINT Spine1
		{
			OFFSET -0.000000 20.280901 0.000000 
			CHANNELS 3 Zrotation Xrotation Yrotation
			JOINT Neck
			{
				OFFSET -0.000000 22.301800 0.000000 
				CHANNELS 3 Zrotation Xrotation Yrotation
				JOINT Head
				{
					OFFSET -0.000000 15.661900 2.020890 
					CHANNELS 3 Zrotation Xrotation Yrotation
					End Site
					{
						OFFSET -0.000000 20.208887 0.000000 
					}
				}
			}
			JOINT LeftShoulder
			{
				OFFSET 3.887530 15.503099 -0.416373 
				CHANNELS 3 Zrotation Xrotation Yrotation
				JOINT LeftArm
				{
					OFFSET 20.767099 0.000000 0.000000 
					CHANNELS 3 Zrotation Xrotation Yrotation
					JOINT LeftForeArm
					{
						OFFSET 26.608500 0.000000 0.000000 
						CHANNELS 3 Zrotation Xrotation Yrotation
						JOINT LeftHand
						{
							OFFSET 25.563202 0.000000 0.000000 
							CHANNELS 3 Zrotation Xrotation Yrotation
							End Site
							{
								OFFSET 15.156667 0.000000 0.000000 
							}
						}
					}
				}
			}
			JOINT RightShoulder
			{
				OFFSET -4.190880 15.503099 -0.416373 
				CHANNELS 3 Zrotation Xrotation Yrotation
				JOINT RightArm
				{
					OFFSET -20.767099 0.000000 0.000000 
					CHANNELS 3 Zrotation Xrotation Yrotation
					JOINT RightForeArm
					{
						OFFSET -26.608500 0.000000 0.000000 
						CHANNELS 3 Zrotation Xrotation Yrotation
						JOINT RightHand
						{
							OFFSET -25.563202 0.000000 0.000000 
							CHANNELS 3 Zrotation Xrotation Yrotation
							End Site
							{
								OFFSET -15.156667 0.000000 0.000000 
							}
						}
					}
				}
			}
		}
	}
	JOINT LeftUpLeg
	{
		OFFSET 10.104500 0.000000 0.000000 
		CHANNELS 3 Zrotation Xrotation Yrotation
		JOINT LeftLeg
		{
			OFFSET -0.000000 -50.743301 0.000000 
			CHANNELS 3 Zrotation Xrotation Yrotation
			JOINT LeftFoot
			{
				OFFSET -0.000000 -35.579197 0.000000 
				CHANNELS 3 Zrotation Xrotation Yrotation
				JOINT LeftToeBase
				{
					OFFSET -0.000000 -6.567910 15.156700 
					CHANNELS 3 Zrotation Xrotation Yrotation
					End Site
					{
						OFFSET -0.000000 0.000000 4.041778 
					}
				}
			}
		}
	}
	JOINT RightUpLeg
	{
		OFFSET -10.104500 0.000000 0.000000 
		CHANNELS 3 Zrotation Xrotation Yrotation
		JOINT RightLeg
		{
			OFFSET -0.000000 -50.743301 0.000000 
			CHANNELS 3 Zrotation Xrotation Yrotation
			JOINT RightFoot
			{
				OFFSET -0.000000 -35.579197 0.000000 
				CHANNELS 3 Zrotation Xrotation Yrotation
				JOINT RightToeBase
				{
					OFFSET -0.000000 -6.567910 15.156700 
					CHANNELS 3 Zrotation Xrotation Yrotation
					End Site
					{
						OFFSET -0.000000 0.000000 4.041778 
					}
				}
			}
		}
	}
}
MOTION
Frames: 6
Frame Time: 0.010000
0.000000 92.940208 0.000000 -2.853909 5.230655 3.708636 4.066072 -11.935025 -3.544029 0.424242 4.825119 -1.339150 -0.708195 -1.254462 -2.371609 -0.704578 13.512996 -2.364187 -2.866713 2.779047 -1.353698 -82.701126 21.922066 -14.167411 4.939753 6.803456 -1.678195 -25.392731 5.165952 7.617927 -9.882711 2.456131 -2.550472 79.951241 41.510971 24.631268 1.730508 4.256546 -1.310735 15.677549 0.984337 -23.594280 7.227297 -5.744138 -8.301261 -9.073961 30.271122 21.389929 -6.288830 -32.975426 -22.363798 0.000000 0.000000 0.000000 -3.056144 -2.000934 -3.342475 7.187852 8.477680 18.354248 -11.576570 -14.561790 -24.526237 0.000000 0.000000 0.000000 
0.002968 92.940643 -0.008908 -2.850323 5.222289 3.705830 4.074090 -11.919456 -3.536527 0.409535 4.812986 -1.336059 -0.707835 -1.254998 -2.370379 -0.702479 13.497900 -2.363451 -2.864419 2.781666 -1.354492 -82.696503 21.920536 -14.169437 4.936302 6.805182 -1.681651 -25.391407 5.167805 7.618282 -9.884004 2.453744 -2.547248 79.945839 41.498276 24.626612 1.732176 4.252102 -1.310127 15.687089 0.982700 -23.560575 7.222260 -5.742278 -8.307936 -9.078558 30.272373 21.399923 -6.289071 -32.971939 -22.363771 0.000000 0.000000 0.000000 -3.061468 -2.011958 -3.341105 7.187093 8.508479 18.358061 -11.580259 -14.568340 -24.532852 0.000000 0.000000 0.000000 
0.005964 92.941055 -0.017862 -2.846695 5.214106 3.703151 4.082118 -11.903996 -3.528982 0.394679 4.800804 -1.332960 -0.707394 -1.255601 -2.369117 -0.700415 13.482865 -2.362718 -2.862010 2.784240 -1.355271 -82.691963 21.918945 -14.171395 4.932738 6.806982 -1.685079 -25.390085 5.169705 7.618656 -9.885381 2.451458 -2.544084 79.940399 41.485584 24.622040 1.733898 4.247573 -1.309542 15.696950 0.981004 -23.526409 7.217112 -5.740609 -8.314565 -9.083138 30.273659 21.409899 -6.289320 -32.968441 -22.363760 0.000000 0.000000 0.000000 -3.066812 -2.023190 -3.339955 7.186148 8.539310 18.361713 -11.583769 -14.575015 -24.539160 0.000000 0.000000 0.000000 
0.008971 92.941483 -0.026825 -2.843113 5.205832 3.700646 4.090139 -11.888620 -3.521468 0.379850 4.788797 -1.329889 -0.707044 -1.256008 -2.367843 -0.698259 13.467508 -2.361964 -2.859693 2.786911 -1.356139 -82.687279 21.917307 -14.173460 4.929125 6.808734 -1.688505 -25.388691 5.171558 7.619087 -9.886741 2.449225 -2.540836 79.934883 41.472763 24.617350 1.735604 4.242879 -1.308881 15.707284 0.979163 -23.491396 7.212022 -5.738884 -8.321165 -9.087693 30.274988 21.419796 -6.289627 -32.964973 -22.363844 0.000000 0.000000 0.000000 -3.072111 -2.034296 -3.338780 7.185216 8.570048 18.365507 -11.587363 -14.581569 -24.545618 0.000000 0.000000 0.000000 
0.012021 92.941902 -0.035834 -2.839479 5.197618 3.697991 4.098229 -11.873475 -3.513903 0.364687 4.777039 -1.326812 -0.706373 -1.256485 -2.366566 -0.696324 13.451884 -2.361133 -2.857223 2.789371 -1.357022 -82.682709 21.915770 -14.175375 4.925657 6.810487 -1.691840 -25.387390 5.173439 7.619378 -9.887856 2.447021 -2.537716 79.928802 41.459988 24.612820 1.737538 4.237909 -1.308293 15.718388 0.977095 -23.454885 7.206835 -5.737271 -8.327676 -9.092159 30.276358 21.429531 -6.289928 -32.961498 -22.363914 0.000000 0.000000 0.000000 -3.077468 -2.045468 -3.337750 7.184244 8.600732 18.369251 -11.590920 -14.588077 -24.552002 0.000000 0.000000 0.000000 
0.015099 92.942322 -0.044852 -2.835938 5.189199 3.695587 4.106337 -11.858290 -3.506459 0.349548 4.765491 -1.323758 -0.705704 -1.256970 -2.365247 -0.694483 13.436114 -2.360195 -2.854978 2.791787 -1.357955 -82.678032 21.914213 -14.177235 4.922316 6.812240 -1.695121 -25.386189 5.175282 7.619727 -9.889074 2.444769 -2.534561 79.922653 41.447121 24.607918 1.739468 4.232626 -1.307486 15.730564 0.974716 -23.416645 7.201758 -5.735483 -8.334167 -9.096622 30.277838 21.439047 -6.290246 -32.958168 -22.364031 0.000000 0.000000 0.000000 -3.082641 -2.056330 -3.336943 7.183025 8.631275 18.372910 -11.594337 -14.594581 -24.558136 0.000000 0.000000 0.000000 
